<svg xmlns="http://www.w3.org/2000/svg" viewBox="0 0 424.83 424.82" fill="url(#gradient-favicon)">
  <path d="M362.61,362.61l62.21,62.21h-88.5l-123.9-123.89v-88.51s105.41,105.41,105.41,105.41c.03-.03.07-.07.09-.1,26.94-26.96,43.58-64.19,43.58-105.31,0-82.33-66.74-149.08-149.07-149.08-9.36,0-18.53.87-27.42,2.51-12.22,2.28-23.93,6.05-34.92,11.11-16.07,7.41-30.61,17.6-42.98,29.95-.03.03-.05.05-.09.09-12.82,12.82-23.31,27.96-30.8,44.74,0,.01-.01.02-.02.03-8.25,18.52-12.84,39.05-12.84,60.65,0,60.08,35.54,111.85,86.73,135.45,10.99,5.07,22.68,8.83,34.92,11.11,8.89,1.65,18.06,2.51,27.42,2.51v63.33c-9.29,0-18.45-.6-27.42-1.74-11.98-1.55-23.65-4.1-34.92-7.55C63.18,388.89,0,308.04,0,212.42c0-39.28,10.65-76.06,29.23-107.61.01-.01.01-.02.02-.03,9.17-15.57,20.27-29.87,32.97-42.56.03-.03.07-.07.1-.09,24.21-24.19,54.22-42.55,87.76-52.83,11.27-3.46,22.93-6,34.92-7.54,8.97-1.16,18.13-1.76,27.42-1.76,117.32,0,212.42,95.1,212.42,212.42,0,58.6-23.73,111.67-62.13,150.1-.02.03-.05.07-.09.1Z"/>

  <defs>
    <linearGradient id="gradient-favicon" x1="0%" x2="100%" y1="0%" y2="0%">
      <stop offset="0%" stop-color="#FF4D88" />
      <stop offset="100%" stop-color="#FE8A63" />
    </linearGradient>
  </defs>
</svg>